<svg xmlns="http://www.w3.org/2000/svg" viewBox="0 0 1165.39 194.33"><defs><style>.cls-1{isolation:isolate;}.cls-2{fill:#221f1f;}.cls-3{mix-blend-mode:multiply;}.cls-4{fill:#ff000d;}</style></defs><title>logo_horizontal</title><g class="cls-1"><g id="Layer_1" data-name="Layer 1"><path d="M127,321.52H95.69v-6.41H127q6,0,9-3.17t3-8.74q0-5.57-3-8.78t-9-3.2H95.69v-6.34H127q8.5,0,13,5.19t4.46,13.17q0,8-4.46,13.13T127,321.52Z" transform="translate(-95.2 -127.19)"/><path d="M144.38,252.87a23.55,23.55,0,0,1-7,17.1q-7,7.1-17.66,7.1T102.14,270a24.08,24.08,0,0,1-6.93-17.48,25.44,25.44,0,0,1,3.55-13.41A21.05,21.05,0,0,1,109,230.41v7.66q-8.15,4.32-8.15,14.42a17.48,17.48,0,0,0,5.19,13q5.19,5.12,13.76,5.12t13.79-5.12a17.12,17.12,0,0,0,5.22-12.75q0-7.63-4.32-12.26t-11.7-5.4V255h-5V228.39h5a23.46,23.46,0,0,1,15.46,7.73A24,24,0,0,1,144.38,252.87Z" transform="translate(-95.2 -127.19)"/><path d="M144,187.15l-10.59,3.76v21.45L144,216.13v6.48L95.69,205.05v-7L144,180.6Zm-15.6,23.4V192.72l-24.94,8.92Z" transform="translate(-95.2 -127.19)"/><circle class="cls-2" cx="178.13" cy="78.68" r="15.82"/><circle class="cls-2" cx="271.22" cy="78.68" r="15.82"/><ellipse class="cls-2" cx="178.44" cy="171.46" rx="15.78" ry="15.82"/><ellipse class="cls-2" cx="271.27" cy="171.46" rx="15.78" ry="15.82"/><rect class="cls-2" x="162.3" y="115.36" width="124.74" height="21.52" rx="9.61" ry="9.61"/><path d="M561.38,314.92,554,293.4H509.31l-7.39,21.52H477.44l40.57-115h27.43l40.41,115Zm-46-39.26h32.69l-16.43-47.8Z" transform="translate(-95.2 -127.19)"/><path d="M694.59,299.32q-16.92-16.59-16.92-42.05t17-42.05q17-16.59,41.64-16.59,18.73,0,33.26,9.53a52.3,52.3,0,0,1,20.78,26.77H762.6q-7.72-15.11-26.28-15.11-15.61,0-25.38,10.27t-9.77,27.27q0,17,9.77,27.27t25.38,10.27q18.4,0,26.28-15.11h27.76q-6.24,17.25-20.78,26.69t-33.26,9.45Q711.51,315.91,694.59,299.32Z" transform="translate(-95.2 -127.19)"/><path d="M915.69,314.92H892.53V200.27h23.16v51.25l41.39-51.25h30.22l-49.77,57.49,49.77,57.16H957.25L915.69,264Z" transform="translate(-95.2 -127.19)"/><path d="M1122.5,217.19q-6.9,0-11.25,3.53a11.89,11.89,0,0,0-4.35,9.77q0,6.24,3.2,9.77a20.5,20.5,0,0,0,8.46,5.42,106.61,106.61,0,0,0,11.5,3.37q6.24,1.48,12.48,3.61a61.62,61.62,0,0,1,11.5,5.26,22.78,22.78,0,0,1,8.46,9.12,30.5,30.5,0,0,1,3.2,14.54q0,14.13-11.25,24.31t-29.9,10.18q-18.65,0-30.14-8.79t-11.5-24.72h24.64q1.31,15.12,17.25,15.11,7.88,0,12.48-4.11a13.93,13.93,0,0,0,4.6-10.92q0-6.81-6.08-10.76a45.42,45.42,0,0,0-14.7-5.91q-8.62-2-17.33-4.76a32.35,32.35,0,0,1-14.78-9.77q-6.08-7-6.08-18.48,0-15.6,11.33-25t29.16-9.36q17.82,0,28.66,8.13t11.83,24.72h-25.3a15.58,15.58,0,0,0-4.93-10.43Q1129.4,217.19,1122.5,217.19Z" transform="translate(-95.2 -127.19)"/><g class="cls-3"><path class="cls-4" d="M1224,132q5.85-4.79,15.31-4.79t14.82,4.79a15.53,15.53,0,0,1,5.37,12.1,15.19,15.19,0,0,1-2.9,9.46,14,14,0,0,1-6.51,5.06v.35q10.56,3.61,10.56,15.92a16.82,16.82,0,0,1-5.63,13.19q-5.63,5-15.48,5t-16.1-5q-6.25-5-6.51-14.69h12a9.58,9.58,0,0,0,2.95,6.91,10.44,10.44,0,0,0,7.43,2.59q4.66,0,7.08-2.51t2.42-7.17q0-4.66-3.3-6.91T1235,164h-2.55V153.93H1235q12.49,0,12.49-8.36a7.4,7.4,0,0,0-2.29-5.72,9.25,9.25,0,0,0-6.51-2.11q-4.22,0-6.33,2.38a9.55,9.55,0,0,0-2.46,5.28h-12.05Q1218.11,136.78,1224,132Z" transform="translate(-95.2 -127.19)"/></g></g></g></svg>