<?xml version="1.0" encoding="utf-8"?>
<!-- Generator: Adobe Illustrator 21.0.0, SVG Export Plug-In . SVG Version: 6.00 Build 0)  -->
<svg version="1.1" id="Layer_1" xmlns="http://www.w3.org/2000/svg" xmlns:xlink="http://www.w3.org/1999/xlink" x="0px" y="0px"
	 viewBox="0 0 1000 1000" style="enable-background:new 0 0 1000 1000;" xml:space="preserve">
<style type="text/css">
	.st0{fill:none;stroke:#FF000D;stroke-width:2;stroke-miterlimit:10;}
</style>
<g id="X3StnF_1_">
	<g>
		<g>
			<path class="st0" d="M506.7,515.3c-4.6,0-9,0-13.5,0c-0.5-7.3,1-13.8,6.8-18.7c1.8-1.6,3.8-3,5.6-4.6c3.6-3.1,4.6-8.1,2.7-12.4
				c-1.4-3.1-4.9-4.8-8.9-4.3c-4.6,0.6-7.7,3.7-8.7,8.8c-0.2,1-0.2,2.1-0.4,3.2c-0.1,0.4-0.6,1-1,1c-4.2,0.1-8.5,0-12.7,0
				c-0.3,0-0.6,0-1.3-0.1c0.2-1.8,0.3-3.6,0.6-5.3c2.3-11.9,11.5-19.4,23.6-19.5c5.4,0,10.6,0.8,15.4,3.4
				c6.6,3.5,10.3,10.7,9.8,18.2c-0.5,6.5-3.4,11.3-8.6,15c-2,1.4-3.9,2.8-5.7,4.5c-2.6,2.4-4.2,5.3-4,9
				C506.7,514,506.7,514.6,506.7,515.3z"/>
			<path class="st0" d="M499.5,537c-4.3,0-7.9-3.6-7.8-7.9c0.1-4.3,3.7-7.8,8-7.8c4.3,0,7.8,3.7,7.8,8
				C507.5,533.6,503.9,537,499.5,537z"/>
		</g>
	</g>
</g>
</svg>
