<?xml version="1.0" encoding="utf-8"?>
<!-- Generator: Adobe Illustrator 21.0.0, SVG Export Plug-In . SVG Version: 6.00 Build 0)  -->
<svg version="1.1" id="Layer_1" xmlns="http://www.w3.org/2000/svg" xmlns:xlink="http://www.w3.org/1999/xlink" x="0px" y="0px"
	 viewBox="0 0 800 800" style="enable-background:new 0 0 800 800;" xml:space="preserve">
<style type="text/css">
	.st0{fill:#FF000D;}
	.st1{font-family:'Poppins-Medium';}
	.st2{font-size:27.5537px;}
	.st3{letter-spacing:2;}
	.st4{fill:#CCCCCC;stroke:#FFFFFF;stroke-width:1.7;stroke-miterlimit:10;}
	.st5{fill:none;stroke:#FF000D;stroke-width:3.0082;stroke-miterlimit:10;}
	.st6{fill:#CCCCCC;}
	.st7{fill:none;stroke:#CCCCCC;stroke-width:3;stroke-miterlimit:10;}
	.st8{fill:none;stroke:#CCCCCC;stroke-width:3.0437;stroke-miterlimit:10;}
</style>
<g>
	<g>
		<text transform="matrix(1 0 0 1 216.4556 382.8008)" class="st0 st1 st2 st3">HARDWARE</text>
	</g>
	<g id="_x31_EQw0E_1_">
		<g>
			<path class="st4" d="M302.8,231.1c12.9,0,25.8,0,38.7,0c6,0,10.8,3.1,12.7,8.7c0.7,2.1,1.8,3.3,3.5,4.5c3.7,2.6,5.2,6.4,5.3,10.8
				c0,17.2,0.1,34.3,0,51.5c0,7.9-5.8,13.5-13.8,13.5c-9.4,0-18.7,0-28.1,0c-5.6,0-9.8-2.2-12.6-7.2c-0.2-0.3-0.8-0.7-1.2-0.7
				c-3-0.1-6-0.1-9.1,0c-0.4,0-1,0.4-1.3,0.7c-2.7,4.8-6.8,7.1-12.3,7.1c-9.5,0-19,0-28.5,0c-7.9,0-13.7-5.6-13.7-13.5
				c-0.1-17.1,0-34.3,0-51.4c0-5.4,2.4-9.5,7.2-12.2c0.4-0.2,0.8-0.8,0.9-1.2c1.6-6.7,6.6-10.6,13.6-10.6
				C277.1,231.1,290,231.1,302.8,231.1z M302.9,246.8c-15.5,0-30.9,0-46.4,0c-5.5,0-8.6,3.2-8.6,8.7c0,17,0,33.9,0,50.9
				c0,5.2,3.2,8.5,8.4,8.5c9.6,0.1,19.3,0,28.9,0c3.7,0,6.3-1.7,7.8-5.2c1.2-2.9,2.4-5.7,3.6-8.6c1.2-2.8,3.2-4.5,6.3-4.5
				c3.1,0,5.1,1.7,6.3,4.5c1.2,2.9,2.4,5.7,3.6,8.6c1.4,3.4,4,5.2,7.6,5.2c9.7,0,19.4,0.1,29.1,0c5,0,8.2-3.3,8.2-8.2
				c0-17.3,0-34.5,0-51.8c0-1.3-0.3-2.7-0.9-3.8c-1.6-3.2-4.4-4.4-7.9-4.4C333.6,246.8,318.2,246.8,302.9,246.8z M349.5,241.5
				c-0.2-0.5-0.4-1-0.6-1.3c-1.8-2.9-4.4-3.9-7.7-3.9c-25.6,0-51.1,0-76.7,0c-0.8,0-1.5,0-2.3,0.2c-2.8,0.4-5.4,2.6-5.8,5
				C287.3,241.5,318.3,241.5,349.5,241.5z M305.9,307c-0.6-1.5-1.2-2.9-1.8-4.2c-0.6-1.2-1.9-1.3-2.5-0.2c-0.7,1.4-1.2,2.8-1.9,4.4
				C301.8,307,303.7,307,305.9,307z"/>
			<path class="st4" d="M275.3,299.1c-9.4,0-17-7.6-17.1-16.9c0-9.4,7.7-17.1,17-17.1c9.3,0,17,7.7,17,17
				C292.3,291.5,284.7,299.1,275.3,299.1z M275.3,270.4c-6.5,0-11.8,5.4-11.7,11.8c0.1,6.5,5.3,11.7,11.7,11.7
				c6.4,0,11.8-5.3,11.8-11.8C287.1,275.6,281.7,270.4,275.3,270.4z"/>
			<path class="st4" d="M330.3,299.1c-9.4,0-17-7.6-17-16.9c0-9.4,7.7-17.1,17-17.1c9.3,0,17,7.7,17,17
				C347.3,291.5,339.7,299.1,330.3,299.1z M330.2,270.4c-6.5,0.1-11.8,5.4-11.7,11.8c0.1,6.5,5.3,11.7,11.8,11.7
				c6.4,0,11.8-5.4,11.8-11.8C342,275.6,336.7,270.3,330.2,270.4z"/>
		</g>
	</g>
	<circle class="st5" cx="246.4" cy="312" r="10.1"/>
	<circle class="st5" cx="250.2" cy="237.9" r="10.1"/>
	<circle class="st5" cx="357.5" cy="314.6" r="10.1"/>
	<circle class="st5" cx="356.2" cy="237.9" r="10.1"/>
	<path class="st5" d="M336.2,289h-67.1c-3.4,0-6.1-2.8-6.1-6.1v-1.5c0-3.4,2.8-6.1,6.1-6.1h67.1c3.4,0,6.1,2.8,6.1,6.1v1.5
		C342.4,286.3,339.6,289,336.2,289z"/>
</g>
<g>
	<text transform="matrix(1 0 0 1 478.1777 593.8008)" class="st0 st1 st2 st3">APPS</text>
</g>
<g>
	<g>
		<text transform="matrix(1 0 0 1 216.4004 593.8008)" class="st0 st1 st2 st3">PROGRAMS</text>
	</g>
	<path class="st6" d="M303.7,445.6c17.5,0,35.1,0,52.6,0c6.2,0,9.3,3.2,9.3,9.3c0,22,0,44.1,0,66.1c0,6-3.2,9.2-9.2,9.2
		c-35.2,0-70.5,0-105.7,0c-6,0-9.3-3.2-9.3-9.2c0-22.1,0-44.2,0-66.2c0-5.9,3.2-9.1,9.2-9.1C268.3,445.6,286,445.6,303.7,445.6z
		 M244.6,465.3c0,0.7,0,1.2,0,1.8c0,18,0,36.1,0,54.1c0,4,1.8,5.8,5.8,5.8c35.4,0,70.8,0,106.1,0c4.1,0,5.8-1.7,5.8-5.8
		c0-18.1,0-36.2,0-54.3c0-0.5,0-1.1-0.1-1.6C323.1,465.3,284,465.3,244.6,465.3z M362.4,462c0-3.1,0.2-6-0.1-8.9
		c-0.1-1.1-0.9-2.5-1.8-3.1c-1.1-0.7-2.6-1.1-3.9-1.1c-35.4-0.1-70.7,0-106.1,0c-0.5,0-0.9,0-1.4,0c-2.1,0.2-4.2,1.7-4.3,3.8
		c-0.2,3.1-0.1,6.2-0.1,9.4C284,462,323.1,462,362.4,462z"/>
	<path class="st6" d="M252.7,452.8c1.3,0,2.5,1.2,2.4,2.5c0,1.3-1.2,2.4-2.5,2.4c-1.3,0-2.5-1.1-2.4-2.5
		C250.2,453.9,251.3,452.8,252.7,452.8z"/>
	<path class="st6" d="M260.5,452.8c1.3,0,2.5,1.1,2.5,2.4c0,1.3-1.1,2.5-2.4,2.5c-1.3,0-2.5-1.1-2.5-2.4
		C258,454,259.1,452.8,260.5,452.8z"/>
	<path class="st6" d="M270.8,455.3c0,1.4-1.1,2.5-2.5,2.4c-1.3,0-2.4-1.1-2.4-2.5c0-1.3,1.2-2.5,2.5-2.4
		C269.8,452.8,270.9,453.9,270.8,455.3z"/>
	<circle class="st5" cx="241.4" cy="480" r="10.1"/>
	<circle class="st5" cx="361.8" cy="480.7" r="10.1"/>
	<circle class="st5" cx="361.9" cy="525" r="10.1"/>
	<circle class="st5" cx="245.7" cy="525" r="10.1"/>
	<path class="st5" d="M337.2,454.6h-67.1c-3.4,0-6.1-2.8-6.1-6.1v-1.5c0-3.4,2.8-6.1,6.1-6.1h67.1c3.4,0,6.1,2.8,6.1,6.1v1.5
		C343.3,451.9,340.5,454.6,337.2,454.6z"/>
</g>
<g>
	<text transform="matrix(1 0 0 1 451.5078 381.8008)" class="st0 st1 st2 st3">GAMES</text>
</g>
<g>
	<path class="st6" d="M473.1,265.9c0-2.7,0-5.1,0-7.6c0-1.6,0.8-2.5,2.1-2.4c1.2,0,2,0.9,2,2.4c0,2.5,0,5,0,7.6c2.5,0,4.8,0,7.2,0
		c0.4,0,0.8,0,1.2,0.1c1,0.2,1.7,1.2,1.6,2.1c-0.1,1-0.9,1.8-2,1.8c-2.2,0-4.3,0-6.5,0c-0.4,0-0.9,0-1.5,0c0,2.6,0,5,0,7.5
		c0,0.4,0,0.9-0.2,1.3c-0.4,0.9-1.1,1.4-2.1,1.2c-1.1-0.2-1.7-0.9-1.7-2c0-2.2,0-4.3,0-6.5c0-0.4,0-0.9,0-1.5c-2.6,0-5,0-7.5,0
		c-1.6,0-2.6-0.8-2.6-2.1c0-1.3,0.9-1.9,2.5-1.9C468,265.9,470.5,265.9,473.1,265.9z"/>
	<path class="st6" d="M547.3,257.9c0,2.2-1.9,4-4.1,4c-2.2,0-3.9-1.9-3.9-4c0-2.2,1.8-4,4.1-4C545.5,253.9,547.3,255.7,547.3,257.9z
		"/>
	<path class="st6" d="M533.2,263.9c2.2,0,4.1,1.8,4.1,4c0,2.2-1.8,4-4,4c-2.2,0-4.1-1.8-4.1-4C529.2,265.7,531,264,533.2,263.9z"/>
	<path class="st6" d="M557.3,268c0,2.2-1.9,4-4.1,4c-2.2-0.1-3.9-1.9-3.9-4.1c0-2.2,1.9-4,4.1-4C555.6,264,557.3,265.8,557.3,268z"
		/>
	<path class="st6" d="M543.3,274c2.2,0,4,1.8,4,4c0,2.2-1.8,4.1-4.1,4c-2.2,0-4-1.9-4-4.1C539.3,275.7,541.1,273.9,543.3,274z"/>
	<path class="st6" d="M499.1,282c-1.3,0-2.6,0-3.9,0c-1.3,0-2.1-0.8-2.1-2c0-1.1,0.8-2,2.1-2c2.6,0,5.2,0,7.7,0c1.3,0,2.2,0.9,2.2,2
		c0,1.1-0.9,1.9-2.2,2C501.7,282,500.4,282,499.1,282C499.1,282,499.1,282,499.1,282z"/>
	<path class="st6" d="M519.2,278c1.3,0,2.6,0,3.9,0c1.3,0,2.1,0.8,2.1,2c0,1.2-0.9,2-2.2,2c-2.5,0-5.1,0-7.6,0c-1.4,0-2.2-0.8-2.2-2
		c0-1.2,0.9-2,2.3-2C516.7,277.9,517.9,278,519.2,278z"/>
</g>
<path class="st7" d="M546.9,239.5h-38.6H471c0,0-18.7,0-18.7,18.7v53.3c0,1.9,0.7,3.8,2.1,5c2,1.7,5.5,2.7,11.9-1.1
	c11.7-7,21-19.9,21-19.9h17.5h8.2h17.5c0,0,9.3,12.9,21,19.9c6.3,3.8,9.9,2.8,11.9,1.1c1.4-1.3,2.1-3.1,2.1-5v-53.3
	C565.6,239.5,546.9,239.5,546.9,239.5z"/>
<rect x="496.7" y="232.5" class="st7" width="23.4" height="7"/>
<path class="st7" d="M508.4,232.5v-19.9c0,0,1.2-7-7-7s-21,0-21,0"/>
<path class="st5" d="M541.8,270.4h-67.1c-3.4,0-6.1-2.8-6.1-6.1v-1.5c0-3.4,2.8-6.1,6.1-6.1h67.1c3.4,0,6.1,2.8,6.1,6.1v1.5
	C547.9,267.6,545.2,270.4,541.8,270.4z"/>
<circle class="st5" cx="487.1" cy="205.6" r="10.1"/>
<circle class="st5" cx="509.4" cy="298.4" r="10.1"/>
<circle class="st5" cx="455.3" cy="313.6" r="10.1"/>
<circle class="st5" cx="562.9" cy="313.6" r="10.1"/>
<path class="st8" d="M585,504.6c-4.4-2.1-8.5-4-12.6-6c-0.4-0.2-0.6-1-0.6-1.6c0-8.8,0-28.9,0-37.7c0-0.6,0-1.1,0-1.8
	c-27.1,0-54,0-81,0c0,20.6,0,41.2,0,61.9c9.7,0,21.6,0,31.5,0c0,3.9,0,7.6,0,11.4c-0.6,0-1.2,0.1-1.8,0.1c-16.1,0-34.5,0-50.6,0
	c-7.5,0-11.8-3.8-11.8-10.2c0-21.7,0-43.3,0-65c0-4.6,2.9-8.1,7.6-9.3c1.2-0.3,2.5-0.4,3.7-0.4c34.8,0,69.5,0,104.3,0
	c6.8,0,11.3,3.9,11.3,9.8c0,12,0,35.3,0,47.3C585,503.5,585,503.9,585,504.6z"/>
<path class="st7" d="M545.8,525c0-5.8,0-11.5,0-17.2c0-4.8,0-9.7,0-14.5c0-1.9,1.1-3.4,2.7-4c1.6-0.5,3.4-0.1,4.4,1.2
	c0.5,0.8,0.9,1.8,0.9,2.8c0.1,3.4,0,6.7,0,10.1c0,0.4,0,0.7,0,1.2c0.3-0.2,0.5-0.3,0.7-0.4c1.3-0.9,2.7-1,4.1-0.2
	c5.4,2.9,10.8,5.8,16.2,8.8c1.4,0.7,2,2,2.1,3.5c0,6,0.1,12,0,18c-0.1,4.6-2.1,8.4-5.6,11.3c-0.3,0.3-0.6,0.9-0.6,1.3
	c-0.1,1.5,0,3,0,4.5c0,1.9-1,3-2.9,3c-5,0-10,0-15,0c-1.8,0-2.8-1.1-2.9-2.9c0-1.7-0.2-3.5,0-5.2c0.2-2-0.7-3.4-1.9-4.7
	c-2.2-2.4-4.5-4.7-6.6-7.1c-0.7-0.8-1.3-1.8-1.7-2.8c-1.7-4.6-3.4-9.3-5-14c-0.9-2.5,0.4-4.9,3-5.4c2-0.4,3.9,0.7,4.6,2.7
	c1.1,3.1,2.2,6.1,3.3,9.2C545.6,524.5,545.7,524.7,545.8,525z"/>
<path class="st6" d="M477.6,486c0,2.7-2.1,4.8-4.7,4.9c-2.7,0.1-5-2.2-4.9-4.9c0-2.6,2.2-4.8,4.9-4.8
	C475.4,481.2,477.6,483.4,477.6,486z"/>
<circle class="st5" cx="458.2" cy="485.7" r="10.1"/>
<circle class="st5" cx="460.4" cy="525" r="10.1"/>
<circle class="st5" cx="549.4" cy="493" r="10.1"/>
<path class="st5" d="M563.6,452.6h-67.1c-3.4,0-6.1-2.8-6.1-6.1v-1.5c0-3.4,2.8-6.1,6.1-6.1h67.1c3.4,0,6.1,2.8,6.1,6.1v1.5
	C569.7,449.9,567,452.6,563.6,452.6z"/>
<circle class="st5" cx="460.2" cy="449.7" r="10.1"/>
</svg>
