<?xml version="1.0" encoding="utf-8"?>
<!-- Generator: Adobe Illustrator 21.0.0, SVG Export Plug-In . SVG Version: 6.00 Build 0)  -->
<svg version="1.1" id="Layer_1" xmlns="http://www.w3.org/2000/svg" xmlns:xlink="http://www.w3.org/1999/xlink" x="0px" y="0px"
	 viewBox="0 0 1000 400" style="enable-background:new 0 0 1000 400;" xml:space="preserve">
<style type="text/css">
	.st0{fill:none;stroke:#FF000D;stroke-width:3;stroke-miterlimit:10;}
	.st1{fill:#FF000D;}
	.st2{fill:none;stroke:#FF000D;stroke-width:2.9618;stroke-miterlimit:10;}
</style>
<path class="st0" d="M276.5,281.5"/>
<g>
	<g>
		<path class="st1" d="M386.7,184.6v-3.7h31.4v3.7H386.7z M386.7,197.3v-3.7h31.4v3.7H386.7z"/>
	</g>
</g>
<circle class="st2" cx="473.6" cy="158.2" r="10.1"/>
<circle class="st2" cx="533.2" cy="158.2" r="10.1"/>
<circle class="st2" cx="473.6" cy="217.6" r="10.1"/>
<circle class="st2" cx="533.2" cy="217.6" r="10.1"/>
<circle class="st2" cx="321.2" cy="158.1" r="10.1"/>
<circle class="st2" cx="321.2" cy="217.6" r="10.1"/>
<circle class="st2" cx="261.5" cy="158.1" r="10.1"/>
<circle class="st2" cx="261.5" cy="217.6" r="10.1"/>
<path class="st2" d="M325.1,195.4h-67.6c-3.4,0-6.2-2.8-6.2-6.2v-1.5c0-3.4,2.8-6.2,6.2-6.2h67.6c3.4,0,6.2,2.8,6.2,6.2v1.5
	C331.3,192.7,328.5,195.4,325.1,195.4z"/>
<path class="st2" d="M730.8,194.6h-67.6c-3.4,0-6.2-2.8-6.2-6.2v-1.5c0-3.4,2.8-6.2,6.2-6.2h67.6c3.4,0,6.2,2.8,6.2,6.2v1.5
	C737,191.8,734.2,194.6,730.8,194.6z"/>
<g>
	<g>
		<path class="st1" d="M612.3,186.5v3.1h-11.6v11.7h-3.4v-11.7h-11.6v-3.1h11.6v-11.7h3.4v11.7H612.3z"/>
	</g>
</g>
</svg>
