<svg xmlns="http://www.w3.org/2000/svg" viewBox="0 0 488.66 82.66"><defs><style>.cls-1{fill:#ff000d;}.cls-2{fill:none;stroke:#ff000d;stroke-miterlimit:10;stroke-width:2.96px;}</style></defs><title>whatisahack_icons</title><g id="Layer_2" data-name="Layer 2"><g id="Layer_1-2" data-name="Layer 1"><path class="cls-1" d="M136.88,38.08v-3.7h31.4v3.7Zm0,12.7v-3.7h31.4v3.7Z"/><circle class="cls-2" cx="223.78" cy="11.68" r="10.1"/><circle class="cls-2" cx="283.38" cy="11.68" r="10.1"/><circle class="cls-2" cx="223.78" cy="71.08" r="10.1"/><circle class="cls-2" cx="283.38" cy="71.08" r="10.1"/><circle class="cls-2" cx="71.38" cy="11.58" r="10.1"/><circle class="cls-2" cx="71.38" cy="71.08" r="10.1"/><circle class="cls-2" cx="11.68" cy="11.58" r="10.1"/><circle class="cls-2" cx="11.68" cy="71.08" r="10.1"/><path class="cls-2" d="M75.28,48.88H7.68a6.23,6.23,0,0,1-6.2-6.2v-1.5A6.23,6.23,0,0,1,7.68,35h67.6a6.23,6.23,0,0,1,6.2,6.2v1.5A6.17,6.17,0,0,1,75.28,48.88Z"/><path class="cls-2" d="M481,48.08h-67.6a6.23,6.23,0,0,1-6.2-6.2v-1.5a6.23,6.23,0,0,1,6.2-6.2H481a6.23,6.23,0,0,1,6.2,6.2v1.5A6.23,6.23,0,0,1,481,48.08Z"/><path class="cls-1" d="M362.48,40v3.1h-11.6v11.7h-3.4V43.08h-11.6V40h11.6V28.28h3.4V40Z"/></g></g></svg>