<svg id="Layer_1" data-name="Layer 1" xmlns="http://www.w3.org/2000/svg" viewBox="0 0 370.12 411.87"><defs><style>.cls-1,.cls-4{isolation:isolate;font-size:27.55px;fill:#ff000d;font-family:Poppins-Medium, Poppins;}.cls-1{letter-spacing:0.07em;}.cls-2,.cls-5{fill:#ccc;}.cls-2{stroke:#fff;stroke-width:1.7px;}.cls-2,.cls-3,.cls-6,.cls-7{stroke-miterlimit:10;}.cls-3,.cls-6,.cls-7{fill:none;}.cls-3{stroke:#ff000d;stroke-width:3.01px;}.cls-4{letter-spacing:0.07em;}.cls-6,.cls-7{stroke:#ccc;}.cls-6{stroke-width:3px;}.cls-7{stroke-width:3.04px;}</style></defs><title>whatdoyoumake_icons</title><g id="Layer_2" data-name="Layer 2"><g id="Layer_1-2" data-name="Layer 1-2"><text class="cls-1" transform="translate(0.06 188.8)">HARDWARE</text><g id="_1EQw0E" data-name=" 1EQw0E"><path class="cls-2" d="M86.4,37.1h38.7c6,0,10.8,3.1,12.7,8.7a8.32,8.32,0,0,0,3.5,4.5c3.7,2.6,5.2,6.4,5.3,10.8,0,17.2.1,34.3,0,51.5,0,7.9-5.8,13.5-13.8,13.5H104.7c-5.6,0-9.8-2.2-12.6-7.2a1.85,1.85,0,0,0-1.2-.7c-3-.1-6-.1-9.1,0a2.39,2.39,0,0,0-1.3.7A13.14,13.14,0,0,1,68.2,126H39.7c-7.9,0-13.7-5.6-13.7-13.5-.1-17.1,0-34.3,0-51.4a13.18,13.18,0,0,1,7.2-12.2,2.15,2.15,0,0,0,.9-1.2c1.6-6.7,6.6-10.6,13.6-10.6Zm.1,15.7H40.1c-5.5,0-8.6,3.2-8.6,8.7v50.9c0,5.2,3.2,8.5,8.4,8.5,9.6.1,19.3,0,28.9,0a7.86,7.86,0,0,0,7.8-5.2c1.2-2.9,2.4-5.7,3.6-8.6s3.2-4.5,6.3-4.5,5.1,1.7,6.3,4.5,2.4,5.7,3.6,8.6a7.74,7.74,0,0,0,7.6,5.2c9.7,0,19.4.1,29.1,0,5,0,8.2-3.3,8.2-8.2V60.9a8.19,8.19,0,0,0-.9-3.8c-1.6-3.2-4.4-4.4-7.9-4.4C117.2,52.8,101.8,52.8,86.5,52.8Zm46.6-5.3a8.1,8.1,0,0,0-.6-1.3c-1.8-2.9-4.4-3.9-7.7-3.9H48.1a9,9,0,0,0-2.3.2c-2.8.4-5.4,2.6-5.8,5ZM89.5,113q-.9-2.25-1.8-4.2c-.6-1.2-1.9-1.3-2.5-.2-.7,1.4-1.2,2.8-1.9,4.4Z" transform="translate(0 0)"/><path class="cls-2" d="M58.9,105.1A17,17,0,1,1,75.8,88v.1a16.84,16.84,0,0,1-16.68,17Zm0-28.7A11.75,11.75,0,1,0,70.65,88.15,11.75,11.75,0,0,0,58.9,76.4Z" transform="translate(0 0)"/><path class="cls-2" d="M113.9,105.1a17,17,0,1,1,.1,0Zm-.1-28.7a11.75,11.75,0,1,0,.1,23.5,12,12,0,0,0,11.8-11.8A11.82,11.82,0,0,0,113.8,76.4Z" transform="translate(0 0)"/></g><circle class="cls-3" cx="30" cy="118.01" r="10.1"/><circle class="cls-3" cx="33.8" cy="43.91" r="10.1"/><circle class="cls-3" cx="141.1" cy="120.6" r="10.1"/><circle class="cls-3" cx="139.8" cy="43.91" r="10.1"/><path class="cls-3" d="M119.8,95H52.7a6.12,6.12,0,0,1-6.1-6.1V87.4a6.12,6.12,0,0,1,6.1-6.1h67.1a6.12,6.12,0,0,1,6.1,6.1v1.5A6,6,0,0,1,120,95Z" transform="translate(0 0)"/><text class="cls-4" transform="translate(261.78 399.8)">APPS</text><text class="cls-4" transform="translate(0 399.8)">PROGRAMS</text><path class="cls-5" d="M87.3,251.6h52.6c6.2,0,9.3,3.2,9.3,9.3V327c0,6-3.2,9.2-9.2,9.2H34.3c-6,0-9.3-3.2-9.3-9.2V260.8c0-5.9,3.2-9.1,9.2-9.1C51.9,251.6,69.6,251.6,87.3,251.6ZM28.2,271.3v55.9c0,4,1.8,5.8,5.8,5.8H140.1c4.1,0,5.8-1.7,5.8-5.8V272.9a8.6,8.6,0,0,0-.1-1.6ZM146,268a87.4,87.4,0,0,0-.1-8.9,4.72,4.72,0,0,0-1.8-3.1,7.65,7.65,0,0,0-3.9-1.1c-35.4-.1-70.7,0-106.1,0H32.7c-2.1.2-4.2,1.7-4.3,3.8-.2,3.1-.1,6.2-.1,9.4C67.6,268,106.7,268,146,268Z" transform="translate(0 0)"/><path class="cls-5" d="M36.3,258.8a2.45,2.45,0,0,1,2.4,2.5h0a2.52,2.52,0,0,1-2.5,2.4,2.39,2.39,0,0,1-2.4-2.38s0-.08,0-.12A2.46,2.46,0,0,1,36.3,258.8Z" transform="translate(0 0)"/><path class="cls-5" d="M44.1,258.8a2.45,2.45,0,1,1-2.4,2.5A2.39,2.39,0,0,1,44,258.8Z" transform="translate(0 0)"/><path class="cls-5" d="M54.4,261.3a2.34,2.34,0,0,1-2.27,2.4H51.9a2.45,2.45,0,1,1,.1-4.9,2.34,2.34,0,0,1,2.4,2.27Q54.41,261.19,54.4,261.3Z" transform="translate(0 0)"/><circle class="cls-3" cx="25" cy="286" r="10.1"/><circle class="cls-3" cx="145.4" cy="286.71" r="10.1"/><circle class="cls-3" cx="145.5" cy="331" r="10.1"/><circle class="cls-3" cx="29.3" cy="331" r="10.1"/><path class="cls-3" d="M120.8,260.6H53.7a6.12,6.12,0,0,1-6.1-6.1V253a6.12,6.12,0,0,1,6.1-6.1h67.1a6.12,6.12,0,0,1,6.1,6.1v1.5A6.12,6.12,0,0,1,120.8,260.6Z" transform="translate(0 0)"/><text class="cls-1" transform="translate(235.11 187.8)">GAMES</text><path class="cls-5" d="M256.7,71.9V64.3c0-1.6.8-2.5,2.1-2.4s2,.9,2,2.4v7.6H268a4.87,4.87,0,0,1,1.2.1,2,2,0,0,1-.4,3.9h-8v7.5a3,3,0,0,1-.2,1.3,1.79,1.79,0,0,1-2.1,1.2,1.88,1.88,0,0,1-1.7-2v-8h-7.5c-1.6,0-2.6-.8-2.6-2.1s.9-1.9,2.5-1.9Z" transform="translate(0 0)"/><path class="cls-5" d="M330.9,63.9a4.1,4.1,0,0,1-4.1,4,4,4,0,0,1,.1-8h.1A4,4,0,0,1,330.9,63.9Z" transform="translate(0 0)"/><path class="cls-5" d="M316.8,69.9a4.1,4.1,0,0,1,4.1,4,4,4,0,1,1-4.1-4Z" transform="translate(0 0)"/><path class="cls-5" d="M340.9,74a4,4,0,1,1-3.9-4.1A4.1,4.1,0,0,1,340.9,74Z" transform="translate(0 0)"/><path class="cls-5" d="M326.9,80a4,4,0,0,1-.1,8,4.1,4.1,0,0,1-4-4.1,4,4,0,0,1,4.1-3.9Z" transform="translate(0 0)"/><path class="cls-5" d="M282.7,88h-3.9a1.92,1.92,0,0,1-2.1-2,2,2,0,0,1,2-2h7.8a2.06,2.06,0,0,1,2.2,1.91s0,.06,0,.09a2.12,2.12,0,0,1-2.2,2Z" transform="translate(0 0)"/><path class="cls-5" d="M302.8,84h3.9a1.92,1.92,0,0,1,2.1,2,2,2,0,0,1-2,2H299a2,2,0,1,1-.22-4l.32,0C300.3,83.9,301.5,84,302.8,84Z" transform="translate(0 0)"/><path class="cls-6" d="M330.5,45.5H254.6s-18.7,0-18.7,18.7v53.3a6.57,6.57,0,0,0,2.1,5c2,1.7,5.5,2.7,11.9-1.1,11.7-7,21-19.9,21-19.9h43.2s9.3,12.9,21,19.9c6.3,3.8,9.9,2.8,11.9,1.1a6.72,6.72,0,0,0,2.1-5V64.2C349.2,45.5,330.5,45.5,330.5,45.5Z" transform="translate(0 0)"/><rect class="cls-6" x="280.3" y="38.5" width="23.4" height="7"/><path class="cls-6" d="M292,38.5V18.6s1.2-7-7-7H264" transform="translate(0 0)"/><path class="cls-3" d="M325.4,76.4H258.3a6.12,6.12,0,0,1-6.1-6.1V68.8a6.12,6.12,0,0,1,6.1-6.1h67.1a6.12,6.12,0,0,1,6.1,6.1v1.5A6.12,6.12,0,0,1,325.4,76.4Z" transform="translate(0 0)"/><circle class="cls-3" cx="270.7" cy="11.61" r="10.1"/><circle class="cls-3" cx="293" cy="104.41" r="10.1"/><circle class="cls-3" cx="238.9" cy="119.6" r="10.1"/><circle class="cls-3" cx="346.5" cy="119.6" r="10.1"/><path class="cls-7" d="M368.6,310.6c-4.4-2.1-8.5-4-12.6-6-.4-.2-.6-1-.6-1.6V263.5h-81v61.9h31.5v11.4c-.6,0-1.2.1-1.8.1H253.5c-7.5,0-11.8-3.8-11.8-10.2v-65c0-4.6,2.9-8.1,7.6-9.3a15.53,15.53,0,0,1,3.7-.4H357.3c6.8,0,11.3,3.9,11.3,9.8v47.3C368.6,309.5,368.6,309.9,368.6,310.6Z" transform="translate(0 0)"/><path class="cls-6" d="M329.4,331V299.3a4.16,4.16,0,0,1,2.7-4,4,4,0,0,1,4.4,1.2,5.47,5.47,0,0,1,.9,2.8c.1,3.4,0,6.7,0,10.1v1.2a5.73,5.73,0,0,1,.7-.4,3.62,3.62,0,0,1,4.1-.2c5.4,2.9,10.8,5.8,16.2,8.8a3.92,3.92,0,0,1,2.1,3.5c0,6,.1,12,0,18a14.66,14.66,0,0,1-5.6,11.3,2.23,2.23,0,0,0-.6,1.3c-.1,1.5,0,3,0,4.5a2.66,2.66,0,0,1-2.9,3h-15a2.73,2.73,0,0,1-2.9-2.9,45.1,45.1,0,0,1,0-5.2,5.78,5.78,0,0,0-1.9-4.7c-2.2-2.4-4.5-4.7-6.6-7.1a10,10,0,0,1-1.7-2.8c-1.7-4.6-3.4-9.3-5-14a3.91,3.91,0,0,1,3-5.4,4,4,0,0,1,4.6,2.7c1.1,3.1,2.2,6.1,3.3,9.2A2.35,2.35,0,0,0,329.4,331Z" transform="translate(0 0)"/><path class="cls-5" d="M261.2,292a4.87,4.87,0,0,1-4.7,4.9,4.78,4.78,0,0,1-4.9-4.66q0-.12,0-.24a4.8,4.8,0,0,1,9.6,0Z" transform="translate(0 0)"/><circle class="cls-3" cx="241.8" cy="291.71" r="10.1"/><circle class="cls-3" cx="244" cy="331" r="10.1"/><circle class="cls-3" cx="333" cy="299" r="10.1"/><path class="cls-3" d="M347.2,258.6H280.1a6.12,6.12,0,0,1-6.1-6.1V251a6.12,6.12,0,0,1,6.1-6.1h67.1a6.12,6.12,0,0,1,6.1,6.1v1.5a6.06,6.06,0,0,1-6,6.1Z" transform="translate(0 0)"/><circle class="cls-3" cx="243.8" cy="255.7" r="10.1"/></g></g></svg>